HIERARCHY
ROOT joint_Root
{
	OFFSET 0.0 0.0 0.0
	CHANNELS 6 Xposition Yposition Zposition Zrotation Xrotation Yrotation 
	JOINT Hips
	{
		OFFSET 4.5925 91.4895 -427.239
		CHANNELS 6 Xposition Yposition Zposition Zrotation Xrotation Yrotation 
		JOINT Spine
		{
			OFFSET 15.7357 0.0 0.0
			CHANNELS 6 Xposition Yposition Zposition Zrotation Xrotation Yrotation 
			JOINT Chest
			{
				OFFSET 8.98455 -0.406207 0.0
				CHANNELS 6 Xposition Yposition Zposition Zrotation Xrotation Yrotation 
				JOINT Neck
				{
					OFFSET 16.3773 0.0 0.0
					CHANNELS 6 Xposition Yposition Zposition Zrotation Xrotation Yrotation 
					JOINT Head
					{
						OFFSET 6.45672 0.0 0.0
						CHANNELS 6 Xposition Yposition Zposition Zrotation Xrotation Yrotation 
						End Site
						{
							OFFSET 0.0 0.0 0.0
						}
					}
				}
				JOINT Shoulder_L
				{
					OFFSET 12.9942 -0.242716 4.98039
					CHANNELS 6 Xposition Yposition Zposition Zrotation Xrotation Yrotation 
					JOINT UpperArm_L
					{
						OFFSET 5.34809 0.0 0.0
						CHANNELS 6 Xposition Yposition Zposition Zrotation Xrotation Yrotation 
						JOINT LowerArm_L
						{
							OFFSET 24.3286 1.87007e-05 0.0
							CHANNELS 6 Xposition Yposition Zposition Zrotation Xrotation Yrotation 
							JOINT Hand_L
							{
								OFFSET 22.2916 0.0 0.0
								CHANNELS 6 Xposition Yposition Zposition Zrotation Xrotation Yrotation 
								End Site
								{
									OFFSET 0.0 0.0 0.0
								}
							}
						}
					}
				}
				JOINT Shoulder_R
				{
					OFFSET 12.9945 -0.242716 -4.98039
					CHANNELS 6 Xposition Yposition Zposition Zrotation Xrotation Yrotation 
					JOINT UpperArm_R
					{
						OFFSET -5.34813 0.0 0.0
						CHANNELS 6 Xposition Yposition Zposition Zrotation Xrotation Yrotation 
						JOINT LowerArm_R
						{
							OFFSET -24.3289 0.000322201 0.0
							CHANNELS 6 Xposition Yposition Zposition Zrotation Xrotation Yrotation 
							JOINT Hand_R
							{
								OFFSET -22.2915 -0.000108084 0.0
								CHANNELS 6 Xposition Yposition Zposition Zrotation Xrotation Yrotation 
								End Site
								{
									OFFSET 0.0 0.0 0.0
								}
							}
						}
					}
				}
			}
		}
		JOINT UpperLeg_L
		{
			OFFSET -2.19248 -6.46944 0.0
			CHANNELS 6 Xposition Yposition Zposition Zrotation Xrotation Yrotation 
			JOINT LowerLeg_L
			{
				OFFSET 39.0811 0.0 -1.23785e-05
				CHANNELS 6 Xposition Yposition Zposition Zrotation Xrotation Yrotation 
				JOINT Foot_L
				{
					OFFSET 40.9854 0.0 -1.26872e-05
					CHANNELS 6 Xposition Yposition Zposition Zrotation Xrotation Yrotation 
					JOINT Toes_L
					{
						OFFSET 11.7543 0.0 0.0
						CHANNELS 6 Xposition Yposition Zposition Zrotation Xrotation Yrotation 
						End Site
						{
							OFFSET 0.0 0.0 0.0
						}
					}
				}
			}
		}
		JOINT UpperLeg_R
		{
			OFFSET -2.19251 6.46944 0.0
			CHANNELS 6 Xposition Yposition Zposition Zrotation Xrotation Yrotation 
			JOINT LowerLeg_R
			{
				OFFSET -39.0811 -0.00228153 -0.0401928
				CHANNELS 6 Xposition Yposition Zposition Zrotation Xrotation Yrotation 
				JOINT Foot_R
				{
					OFFSET -40.9854 0.0 0.0
					CHANNELS 6 Xposition Yposition Zposition Zrotation Xrotation Yrotation 
					JOINT Toes_R
					{
						OFFSET -11.7543 0.0 0.0
						CHANNELS 6 Xposition Yposition Zposition Zrotation Xrotation Yrotation 
						End Site
						{
							OFFSET 0.0 0.0 0.0
						}
					}
				}
			}
		}
	}
}
MOTION
Frames:	8
Frame Time:	0.0333333
0.000000 0.000000 0.000000 0.000000 0.000000 -0.000000 -10.719800 89.697900 -1.729700 84.170800 -1.047960 12.861200 15.735700 0.000005 -0.000001 88.816000 80.132400 -86.718100 8.984550 -0.406207 -0.000000 11.974600 -0.327283 4.229080 16.377300 -0.000001 -0.000001 3.599170 -3.619970 2.726010 6.456720 -0.000001 -0.000000 -7.688850 -5.257660 11.609200 12.994200 -0.242716 4.980390 -91.725700 6.221830 -74.464900 5.348090 -0.000007 -0.000001 -64.286000 28.604400 -11.812300 24.328600 0.000019 0.000005 9.309050 25.840000 -20.610200 22.291600 -0.000001 0.000005 7.353610 5.276260 0.728003 12.994500 -0.242716 -4.980390 88.237000 13.114100 -82.274600 -5.348130 -0.000001 -0.000004 -58.752700 27.379200 -10.253200 -24.328900 0.000322 -0.000009 2.327290 6.456340 -19.879600 -22.291500 -0.000108 -0.000004 14.224200 5.398310 -2.882790 -2.192480 -6.469440 -0.000000 -162.346000 -8.335340 -1.376650 39.081100 -0.000007 -0.000012 -0.299640 0.419399 35.544600 40.985400 -0.000006 -0.000013 -5.878530 8.418760 -70.095200 11.754300 -0.000000 0.000003 -0.000049 -0.000556 -16.599200 -2.192510 6.469440 -0.000001 -175.940000 27.443700 -175.588000 -39.081100 -0.002282 -0.040193 -0.154646 0.274200 29.943400 -40.985400 0.000008 0.000006 11.059600 13.246400 -73.175900 -11.754300 -0.000006 -0.000006 -0.001498 -0.022240 -17.477400
0.000000 0.000000 0.000000 0.000000 0.000000 -0.000000 -10.681000 89.691600 -1.722170 84.189800 -1.149490 12.940700 15.735700 0.000005 -0.000001 88.747200 80.094800 -86.645700 8.984550 -0.406207 -0.000000 12.049700 -0.350860 4.239080 16.377300 -0.000001 -0.000001 3.830760 -3.591150 2.736080 6.456720 -0.000001 -0.000000 -7.458620 -5.192530 11.738800 12.994200 -0.242716 4.980390 -91.803700 6.392510 -74.207500 5.348090 -0.000007 -0.000001 -64.320900 27.076500 -12.306900 24.328600 0.000019 0.000005 10.296600 25.183800 -23.119000 22.291600 -0.000001 0.000005 6.379620 5.289040 0.377397 12.994500 -0.242716 -4.980390 88.179600 13.100300 -82.017900 -5.348130 -0.000001 -0.000004 -58.531800 26.643700 -10.565500 -24.328900 0.000322 -0.000009 2.547090 6.426900 -21.681600 -22.291500 -0.000108 -0.000004 13.779600 5.405750 -3.125470 -2.192480 -6.469440 -0.000000 -162.355000 -8.394650 -1.256810 39.081100 -0.000007 -0.000012 -0.304831 0.426155 35.577000 40.985400 -0.000006 -0.000013 -5.864140 8.362690 -70.146000 11.754300 -0.000000 0.000003 -0.000054 -0.000605 -16.601000 -2.192510 6.469440 -0.000001 -175.956000 27.260900 -175.552000 -39.081100 -0.002282 -0.040193 -0.150738 0.266724 30.007600 -40.985400 0.000008 0.000006 11.018800 13.144900 -73.173200 -11.754300 -0.000006 -0.000006 -0.001302 -0.019613 -17.370700
0.000000 0.000000 0.000000 0.000000 0.000000 -0.000000 -10.661200 89.685100 -1.714200 84.195500 -1.200550 12.988600 15.735700 0.000005 -0.000001 88.544100 80.071700 -86.452400 8.984550 -0.406207 -0.000000 12.095500 -0.421128 4.227000 16.377300 -0.000001 -0.000001 4.061730 -3.570760 2.784690 6.456720 -0.000001 -0.000000 -7.224290 -5.123970 11.839300 12.994200 -0.242716 4.980390 -91.853800 6.502730 -74.050600 5.348090 -0.000007 -0.000001 -63.996600 25.539600 -12.748200 24.328600 0.000019 0.000005 11.483500 24.410600 -26.177200 22.291600 -0.000001 0.000005 6.136060 5.305920 -0.094525 12.994500 -0.242716 -4.980390 88.129200 13.088300 -81.792300 -5.348130 -0.000001 -0.000004 -58.009000 26.104000 -10.921700 -24.328900 0.000322 -0.000009 2.821690 6.444020 -23.717000 -22.291500 -0.000108 -0.000004 13.721300 5.412160 -3.336690 -2.192480 -6.469440 -0.000000 -162.360000 -8.430600 -1.212520 39.081100 -0.000007 -0.000012 -0.295836 0.412921 35.620100 40.985400 -0.000006 -0.000013 -5.838800 8.383460 -70.174800 11.754300 -0.000000 0.000003 -0.000048 -0.000548 -16.598800 -2.192510 6.469440 -0.000001 -175.979000 27.143100 -175.525000 -39.081100 -0.002282 -0.040193 -0.157350 0.277553 30.062900 -40.985400 0.000008 0.000006 10.984900 13.085400 -73.185200 -11.754300 -0.000006 -0.000006 -0.001536 -0.022753 -17.498300
0.000000 0.000000 0.000000 0.000000 0.000000 -0.000000 -10.644800 89.681200 -1.700070 84.179300 -1.190600 13.084200 15.735700 0.000005 -0.000001 88.246800 80.039300 -86.165900 8.984550 -0.406207 -0.000000 12.159500 -0.524347 4.216790 16.377300 -0.000001 -0.000001 4.271680 -3.571320 2.811190 6.456720 -0.000001 -0.000000 -6.933680 -5.055160 11.957400 12.994200 -0.242716 4.980390 -91.870500 6.455620 -73.803500 5.348090 -0.000007 -0.000001 -63.106400 24.493400 -13.543400 24.328600 0.000019 0.000005 12.642800 23.658500 -29.204500 22.291600 -0.000001 0.000005 6.417910 5.327490 -0.711760 12.994500 -0.242716 -4.980390 88.088400 12.964800 -81.538400 -5.348130 -0.000001 -0.000004 -57.188000 25.717700 -11.486200 -24.328900 0.000322 -0.000009 3.135880 6.607830 -25.466400 -22.291500 -0.000108 -0.000004 13.635800 5.424690 -3.758100 -2.192480 -6.469440 -0.000000 -162.319000 -8.410630 -1.108050 39.081100 -0.000007 -0.000012 -0.307968 0.429680 35.631200 40.985400 -0.000006 -0.000013 -5.831160 8.398560 -70.200000 11.754300 -0.000000 0.000003 -0.000050 -0.000567 -16.599600 -2.192510 6.469440 -0.000001 -176.035000 27.180600 -175.406000 -39.081100 -0.002282 -0.040193 -0.155355 0.274035 30.069400 -40.985400 0.000008 0.000006 10.986200 13.118600 -73.201000 -11.754300 -0.000006 -0.000006 -0.001329 -0.019978 -17.385500
0.000000 0.000000 0.000000 0.000000 0.000000 -0.000000 -10.641200 89.677200 -1.697410 84.173500 -1.255130 13.119200 15.735700 0.000005 -0.000001 88.038200 80.055000 -85.968700 8.984550 -0.406207 -0.000000 12.127100 -0.596192 4.201400 16.377300 -0.000001 -0.000001 4.604960 -3.571400 2.837720 6.456720 -0.000001 -0.000000 -6.627130 -5.017620 11.989200 12.994200 -0.242716 4.980390 -91.872900 6.359170 -73.551900 5.348090 -0.000007 -0.000001 -61.633100 23.624400 -14.608400 24.328600 0.000019 0.000005 13.827000 23.286800 -31.905000 22.291600 -0.000001 0.000005 6.826600 5.336980 -0.990056 12.994500 -0.242716 -4.980390 88.053900 12.779300 -81.266700 -5.348130 -0.000001 -0.000004 -56.105000 25.209800 -12.180600 -24.328900 0.000322 -0.000009 3.442380 6.819680 -26.872700 -22.291500 -0.000108 -0.000004 13.530400 5.426600 -3.822750 -2.192480 -6.469440 -0.000000 -162.317000 -8.391670 -1.066660 39.081100 -0.000007 -0.000012 -0.302332 0.421441 35.655300 40.985400 -0.000006 -0.000013 -5.836530 8.362470 -70.224600 11.754300 -0.000000 0.000003 -0.000050 -0.000569 -16.599700 -2.192510 6.469440 -0.000001 -176.037000 27.119300 -175.374000 -39.081100 -0.002282 -0.040193 -0.154876 0.272973 30.090800 -40.985400 0.000008 0.000006 10.977800 13.101700 -73.206800 -11.754300 -0.000006 -0.000006 -0.001382 -0.020698 -17.414800
0.000000 0.000000 0.000000 0.000000 0.000000 -0.000000 -10.645100 89.672000 -1.705700 84.162200 -1.386460 13.101100 15.735700 0.000005 -0.000001 88.034700 80.102200 -85.972800 8.984550 -0.406207 -0.000000 12.032700 -0.596248 4.185740 16.377300 -0.000001 -0.000001 4.977330 -3.556570 2.845840 6.456720 -0.000001 -0.000000 -6.236220 -4.970760 11.993600 12.994200 -0.242716 4.980390 -91.859600 6.239930 -73.368500 5.348090 -0.000007 -0.000001 -59.872900 22.332100 -15.880600 24.328600 0.000019 0.000005 14.775500 23.148600 -33.858700 22.291600 -0.000001 0.000005 6.992500 5.341480 -1.123100 12.994500 -0.242716 -4.980390 88.026200 12.592700 -81.017500 -5.348130 -0.000001 -0.000004 -54.730800 24.490500 -12.985900 -24.328900 0.000322 -0.000009 3.559650 6.783800 -27.779900 -22.291500 -0.000108 -0.000004 13.335400 5.430810 -3.966770 -2.192480 -6.469440 -0.000000 -162.270000 -8.507220 -1.055330 39.081100 -0.000007 -0.000012 -0.305361 0.425291 35.679100 40.985400 -0.000006 -0.000013 -5.850990 8.330680 -70.237400 11.754300 -0.000000 0.000003 -0.000050 -0.000566 -16.599500 -2.192510 6.469440 -0.000001 -175.998000 27.037800 -175.403000 -39.081100 -0.002282 -0.040193 -0.159276 0.280288 30.115600 -40.985400 0.000008 0.000006 10.996200 13.121600 -73.215500 -11.754300 -0.000006 -0.000006 -0.001639 -0.024103 -17.553200
0.000000 0.000000 0.000000 0.000000 0.000000 -0.000000 -10.642500 89.665300 -1.717400 84.167800 -1.473380 13.197200 15.735700 0.000005 -0.000001 87.876400 80.120000 -85.827400 8.984550 -0.406207 -0.000000 11.996100 -0.650288 4.165310 16.377300 -0.000001 -0.000001 5.375440 -3.504120 2.855640 6.456720 -0.000001 -0.000000 -5.759480 -4.826490 11.938500 12.994200 -0.242716 4.980390 -91.831000 6.077160 -73.197800 5.348090 -0.000007 -0.000001 -58.050600 20.306600 -17.218600 24.328600 0.000019 0.000005 15.518200 23.270600 -35.100300 22.291600 -0.000001 0.000005 6.563680 5.347110 -1.290930 12.994500 -0.242716 -4.980390 88.014100 12.382300 -80.814800 -5.348130 -0.000001 -0.000004 -53.250800 23.249900 -13.841900 -24.328900 0.000322 -0.000009 3.727750 6.968300 -28.244300 -22.291500 -0.000108 -0.000004 13.141900 5.430860 -3.968640 -2.192480 -6.469440 -0.000000 -162.249000 -8.520610 -0.948430 39.081100 -0.000007 -0.000012 -0.308401 0.429165 35.701900 40.985400 -0.000006 -0.000013 -5.861340 8.290250 -70.254500 11.754300 -0.000000 0.000003 -0.000054 -0.000609 -16.601200 -2.192510 6.469440 -0.000001 -176.033000 26.973500 -175.330000 -39.081100 -0.002282 -0.040193 -0.153953 0.270599 30.162500 -40.985400 0.000008 0.000006 11.011000 13.145600 -73.227200 -11.754300 -0.000006 -0.000006 -0.001393 -0.020835 -17.420300
0.000000 0.000000 0.000000 0.000000 0.000000 -0.000000 -10.644600 89.650900 -1.723840 84.149600 -1.629310 13.220500 15.735700 0.000005 -0.000001 87.874900 80.160400 -85.826900 8.984550 -0.406207 -0.000000 11.915100 -0.649399 4.162600 16.377300 -0.000001 -0.000001 5.762550 -3.421760 2.875820 6.456720 -0.000001 -0.000000 -5.309830 -4.633630 11.750000 12.994200 -0.242716 4.980390 -91.814700 5.950550 -73.006500 5.348090 -0.000007 -0.000001 -56.048500 17.705400 -18.622600 24.328600 0.000019 0.000005 15.891400 23.367800 -35.669900 22.291600 -0.000001 0.000005 5.912920 5.345570 -1.244630 12.994500 -0.242716 -4.980390 87.993700 12.103500 -80.515200 -5.348130 -0.000001 -0.000004 -51.699100 21.620300 -14.838500 -24.328900 0.000322 -0.000009 3.750850 7.016280 -28.229200 -22.291500 -0.000108 -0.000004 12.822700 5.429030 -3.906040 -2.192480 -6.469440 -0.000000 -162.203000 -8.582680 -0.913523 39.081100 -0.000007 -0.000012 -0.305538 0.424091 35.771600 40.985400 -0.000006 -0.000013 -5.877570 8.239930 -70.300800 11.754300 -0.000000 0.000003 -0.000046 -0.000523 -16.597900 -2.192510 6.469440 -0.000001 -175.985000 26.841700 -175.350000 -39.081100 -0.002282 -0.040193 -0.156519 0.274212 30.235300 -40.985400 0.000008 0.000006 11.028600 13.133900 -73.246500 -11.754300 -0.000006 -0.000006 -0.001510 -0.022410 -17.484400
